<?xml version="1.0" encoding="UTF-8" standalone="no"?>
<!-- Uploaded to: SVG Repo, www.svgrepo.com, Transformed by: SVG Repo Mixer Tools -->

<svg
   width="800"
   height="800"
   viewBox="0 0 24 24"
   fill="none"
   version="1.1"
   id="svg1"
   sodipodi:docname="File.svg"
   inkscape:export-filename="File.svg"
   inkscape:export-xdpi="96"
   inkscape:export-ydpi="96"
   xmlns:inkscape="http://www.inkscape.org/namespaces/inkscape"
   xmlns:sodipodi="http://sodipodi.sourceforge.net/DTD/sodipodi-0.dtd"
   xmlns="http://www.w3.org/2000/svg"
   xmlns:svg="http://www.w3.org/2000/svg">
  <defs
     id="defs1" />
  <sodipodi:namedview
     id="namedview1"
     pagecolor="#ffffff"
     bordercolor="#000000"
     borderopacity="0.25"
     inkscape:showpageshadow="2"
     inkscape:pageopacity="0.0"
     inkscape:pagecheckerboard="0"
     inkscape:deskcolor="#d1d1d1" />
  <g
     id="SVGRepo_iconCarrier">
    <path
       fill-rule="evenodd"
       clip-rule="evenodd"
       d="M 4.17157,3.17157 C 3,4.34315 3,6.22876 3,10 v 4 c 0,3.7712 0,5.6569 1.17157,6.8284 C 5.34315,22 7.22876,22 11,22 h 2 c 3.7712,0 5.6569,0 6.8284,-1.1716 C 21,19.6569 21,17.7712 21,14 V 10 C 21,6.22876 21,4.34315 19.8284,3.17157 18.6569,2 16.7712,2 13,2 H 11 C 7.22876,2 5.34315,2 4.17157,3.17157 Z M 7.25,8 C 7.25,7.58579 7.58579,7.25 8,7.25 h 8 c 0.4142,0 0.75,0.33579 0.75,0.75 0,0.41421 -0.3358,0.75 -0.75,0.75 H 8 C 7.58579,8.75 7.25,8.41421 7.25,8 Z m 0,4 c 0,-0.4142 0.33579,-0.75 0.75,-0.75 h 8 c 0.4142,0 0.75,0.3358 0.75,0.75 0,0.4142 -0.3358,0.75 -0.75,0.75 H 8 C 7.58579,12.75 7.25,12.4142 7.25,12 Z M 8,15.25 c -0.41421,0 -0.75,0.3358 -0.75,0.75 0,0.4142 0.33579,0.75 0.75,0.75 h 5 c 0.4142,0 0.75,-0.3358 0.75,-0.75 0,-0.4142 -0.3358,-0.75 -0.75,-0.75 z"
       fill="#75ba75"
       id="path1" />
  </g>
</svg>
